<svg width="50" height="50" viewBox="0 0 50 50" fill="none" xmlns="http://www.w3.org/2000/svg">
<path d="M42.7083 15.1667V10.4167C42.7083 8.125 40.8333 6.25 38.5416 6.25H9.37492C7.06242 6.25 5.20825 8.125 5.20825 10.4167V39.5833C5.20825 41.875 7.06242 43.75 9.37492 43.75H38.5416C40.8333 43.75 42.7083 41.875 42.7083 39.5833V34.8333C43.9374 34.1042 44.7916 32.7917 44.7916 31.25V18.75C44.7916 17.2083 43.9374 15.8958 42.7083 15.1667ZM40.6249 18.75V31.25H26.0416V18.75H40.6249ZM9.37492 39.5833V10.4167H38.5416V14.5833H26.0416C23.7499 14.5833 21.8749 16.4583 21.8749 18.75V31.25C21.8749 33.5417 23.7499 35.4167 26.0416 35.4167H38.5416V39.5833H9.37492Z" fill="#141818"/>
<path d="M32.2916 28.125C34.0175 28.125 35.4166 26.7259 35.4166 25C35.4166 23.2741 34.0175 21.875 32.2916 21.875C30.5657 21.875 29.1666 23.2741 29.1666 25C29.1666 26.7259 30.5657 28.125 32.2916 28.125Z" fill="#141818"/>
</svg>
