<svg width="25" height="24" viewBox="0 0 25 24" fill="none" xmlns="http://www.w3.org/2000/svg">
<path fill-rule="evenodd" clip-rule="evenodd" d="M11.2071 4.29296C11.5976 4.68348 11.5976 5.31665 11.2071 5.70717L5.91423 11H21.5C22.0523 11 22.5 11.4477 22.5 12C22.5 12.5523 22.0523 13 21.5 13H5.9142L11.2071 18.293C11.5976 18.6835 11.5976 19.3166 11.2071 19.7072C10.8166 20.0977 10.1834 20.0977 9.79289 19.7072L2.79289 12.7071C2.60535 12.5196 2.5 12.2652 2.5 12C2.5 11.7348 2.60536 11.4804 2.7929 11.2929L9.7929 4.29295C10.1834 3.90243 10.8166 3.90243 11.2071 4.29296Z" fill="#141818"/>
</svg>
