<svg width="25" height="24" viewBox="0 0 25 24" fill="none" xmlns="http://www.w3.org/2000/svg">
<path fill-rule="evenodd" clip-rule="evenodd" d="M6.7052 12H4.7052L4.7052 20H6.7052L6.7052 12ZM4.7052 10C3.60063 10 2.7052 10.8954 2.7052 12V20C2.7052 21.1046 3.60063 22 4.7052 22H6.7052C7.80977 22 8.7052 21.1046 8.7052 20V12C8.7052 10.8954 7.80977 10 6.7052 10H4.7052Z" fill="#141818"/>
<path fill-rule="evenodd" clip-rule="evenodd" d="M13.7052 8H11.7052L11.7052 20H13.7052L13.7052 8ZM11.7052 6C10.6006 6 9.7052 6.89543 9.7052 8V20C9.7052 21.1046 10.6006 22 11.7052 22H13.7052C14.8098 22 15.7052 21.1046 15.7052 20V8C15.7052 6.89543 14.8098 6 13.7052 6H11.7052Z" fill="#141818"/>
<path fill-rule="evenodd" clip-rule="evenodd" d="M20.7052 4H18.7052L18.7052 20H20.7052L20.7052 4ZM18.7052 2C17.6006 2 16.7052 2.89543 16.7052 4V20C16.7052 21.1046 17.6006 22 18.7052 22H20.7052C21.8098 22 22.7052 21.1046 22.7052 20V4C22.7052 2.89543 21.8098 2 20.7052 2H18.7052Z" fill="#141818"/>
</svg>
