<svg width="40" height="38" viewBox="0 0 40 38" fill="none" xmlns="http://www.w3.org/2000/svg">
<path fill-rule="evenodd" clip-rule="evenodd" d="M33.1047 17.5604L32.1179 14.9978C31.4926 13.3736 30.4904 11.8824 29.1733 10.6472L28.017 9.56279L27.9175 7.98061C27.8523 6.94252 27.8769 5.90521 27.9934 4.87506C26.9036 5.38219 25.924 5.96847 25.0875 6.60545L23.4359 7.86314L21.4568 7.23654C15.0914 5.22122 9.40727 7.80136 6.33142 12.1269C3.29104 16.4027 2.88846 22.2157 7.14396 27.1347C8.75677 28.9604 9.65102 31.312 9.65102 33.7518V34H12.8975L12.9055 31.4871L16.9726 31.5685C17.4392 31.5778 17.9276 31.5593 18.4151 31.5164L22.8616 31.1255L22.7991 34H26.007V29.8964L27.7328 28.7037C28.3688 28.2641 28.9065 27.9025 29.364 27.5948C31.3976 26.2272 31.8458 25.9258 32.2954 24.5824L33.2092 21.8518H36V17.5604H33.1047ZM4.13488 29.7702C-7.0812 16.8382 6.33902 -1.74552 22.6641 3.4231C24.5073 2.01954 26.7794 0.882522 29.2596 0.112018C30.1259 -0.154535 31.073 0.0620393 31.727 0.682608C32.3938 1.31567 32.6529 2.25277 32.4023 3.13156C31.9733 4.63509 31.812 6.17609 31.9096 7.7296C33.6594 9.37056 35.0056 11.3655 35.8508 13.5604H38.1271C39.1591 13.5604 40 14.3851 40 15.3972V24.0151C40 25.0272 39.1591 25.8518 38.1271 25.8518H36.0886C35.1789 28.5704 33.5258 29.66 31.3234 31.1119C30.9041 31.3883 30.4649 31.6778 30.007 31.9942V35.551C30.007 36.9046 28.8858 38 27.5098 38H21.2626C20.9833 38 20.7146 37.9547 20.4638 37.8713C19.6243 37.5923 18.9844 36.8865 18.8114 36.0236C18.7822 35.8777 18.7662 35.7273 18.765 35.5736C18.7648 35.5495 18.7649 35.5253 18.7655 35.5011C18.3261 35.5397 17.8781 35.5635 17.4307 35.5694C17.251 35.5718 17.0715 35.5713 16.8927 35.5677C16.8927 35.5677 16.8927 35.5677 16.8927 35.5677C16.8926 35.5949 16.892 35.6219 16.891 35.6488C16.8529 36.6813 16.1529 37.553 15.1957 37.8711C14.9442 37.9547 14.675 38 14.3954 38H8.1482C6.7722 38 5.65102 36.9005 5.65102 35.551V33.7518C5.65102 32.2858 5.11166 30.8697 4.13488 29.7702Z" fill="black"/>
<path d="M28.5 15.5007C28.5 16.6052 27.6046 17.5007 26.5 17.5007C25.3954 17.5007 24.5 16.6052 24.5 15.5007C24.5 14.3961 25.3954 13.5007 26.5 13.5007C27.6046 13.5007 28.5 14.3961 28.5 15.5007Z" fill="#171717"/>
<path fill-rule="evenodd" clip-rule="evenodd" d="M16.0003 9.00067C18.0511 9.00071 19.8631 10.0352 21.4144 11.5864C22.1955 12.3675 22.1955 13.6338 21.4145 14.4149C20.6335 15.1959 19.3671 15.1959 18.5861 14.4149C17.4707 13.2996 16.616 13.0007 16.0002 13.0007C15.3844 13.0007 14.5298 13.2995 13.4145 14.4149C12.6334 15.1959 11.3671 15.1959 10.5861 14.4149C9.80499 13.6339 9.80497 12.3675 10.586 11.5865C12.1374 10.0351 13.9494 9.00063 16.0003 9.00067Z" fill="black"/>
</svg>
