<svg width="25" height="24" viewBox="0 0 25 24" fill="none" xmlns="http://www.w3.org/2000/svg">
<path fill-rule="evenodd" clip-rule="evenodd" d="M2.75 4C2.75 2.89543 3.64543 2 4.75 2H20.75C21.8546 2 22.75 2.89543 22.75 4V17C22.75 18.1046 21.8546 19 20.75 19H15.3961L14.5732 20.825C13.8651 22.3955 11.6349 22.3955 10.9268 20.825L10.1039 19H4.75C3.64543 19 2.75 18.1046 2.75 17V4ZM13.829 17.6098C13.9634 17.2929 14.2566 17.0596 14.6088 17.0099C14.6628 17.0021 14.7176 16.9988 14.7726 17H20.75V4H4.75V17H10.7274C10.7824 16.9988 10.8372 17.0021 10.8912 17.0099C11.0376 17.0306 11.1739 17.083 11.2927 17.16C11.4597 17.268 11.5924 17.4246 11.6709 17.6096L12.75 20.0029L13.829 17.6098ZM8 11.75C8.69036 11.75 9.25 11.1904 9.25 10.5C9.25 9.80964 8.69036 9.25 8 9.25C7.30964 9.25 6.75 9.80964 6.75 10.5C6.75 11.1904 7.30964 11.75 8 11.75ZM14 10.5C14 11.1904 13.4404 11.75 12.75 11.75C12.0596 11.75 11.5 11.1904 11.5 10.5C11.5 9.80964 12.0596 9.25 12.75 9.25C13.4404 9.25 14 9.80964 14 10.5ZM17.5 11.75C18.1904 11.75 18.75 11.1904 18.75 10.5C18.75 9.80964 18.1904 9.25 17.5 9.25C16.8096 9.25 16.25 9.80964 16.25 10.5C16.25 11.1904 16.8096 11.75 17.5 11.75Z" fill="#141818"/>
</svg>
