<svg width="48" height="48" viewBox="0 0 48 48" fill="none" xmlns="http://www.w3.org/2000/svg">
<path d="M23 46.5902V39.3902C12.98 38.8702 5 30.5502 5 20.4102C5 9.93016 13.52 1.41016 24 1.41016C34.48 1.41016 43 9.93016 43 20.4102C43 30.3102 36.12 40.2702 25.86 45.2102L23 46.5902ZM24 5.41016C15.72 5.41016 9 12.1302 9 20.4102C9 28.6902 15.72 35.4102 24 35.4102H27V40.0102C34.28 35.4102 39 27.8502 39 20.4102C39 12.1302 32.28 5.41016 24 5.41016ZM22 28.4102H26V32.4102H22V28.4102ZM26 25.4102H22C22 18.9102 28 19.4102 28 15.4102C28 13.2102 26.2 11.4102 24 11.4102C21.8 11.4102 20 13.2102 20 15.4102H16C16 10.9902 19.58 7.41016 24 7.41016C28.42 7.41016 32 10.9902 32 15.4102C32 20.4102 26 20.9102 26 25.4102Z" fill="black"/>
</svg>
