<svg width="25" height="24" viewBox="0 0 25 24" fill="none" xmlns="http://www.w3.org/2000/svg">
<path fill-rule="evenodd" clip-rule="evenodd" d="M5.23116 13.2929C5.62168 12.9024 6.25485 12.9024 6.64537 13.2929L11.9382 18.5858L11.9382 3C11.9382 2.44772 12.3859 2 12.9382 2C13.4905 2 13.9382 2.44772 13.9382 3L13.9382 18.5858L19.2312 13.2929C19.6217 12.9024 20.2548 12.9024 20.6454 13.2929C21.0359 13.6834 21.0359 14.3166 20.6454 14.7071L13.6453 21.7071C13.4578 21.8946 13.2034 22 12.9382 22C12.673 22 12.4186 21.8946 12.2311 21.7071L5.23115 14.7071C4.84063 14.3166 4.84063 13.6834 5.23116 13.2929Z" fill="#141818"/>
</svg>
