<svg width="50" height="50" viewBox="0 0 50 50" fill="none" xmlns="http://www.w3.org/2000/svg">
<path d="M25.0008 4.93884C13.9264 4.93884 4.93848 13.9267 4.93848 25.0011C4.93848 36.0755 13.9264 45.0634 25.0008 45.0634C36.0751 45.0634 45.063 36.0755 45.063 25.0011C45.063 13.9267 36.0751 4.93884 25.0008 4.93884ZM25.0008 27.0074C23.8973 27.0074 22.9945 26.1046 22.9945 25.0011V16.9762C22.9945 15.8728 23.8973 14.97 25.0008 14.97C26.1042 14.97 27.007 15.8728 27.007 16.9762V25.0011C27.007 26.1046 26.1042 27.0074 25.0008 27.0074ZM27.007 35.0323H22.9945V31.0198H27.007V35.0323Z" fill="#141818"/>
</svg>
