<svg width="25" height="24" viewBox="0 0 25 24" fill="none" xmlns="http://www.w3.org/2000/svg">
<path fill-rule="evenodd" clip-rule="evenodd" d="M14.2312 19.7071C13.8406 19.3166 13.8406 18.6834 14.2312 18.2929L19.524 13.0001L3.93826 13.0001C3.38598 13.0001 2.93826 12.5523 2.93826 12.0001C2.93826 11.4478 3.38598 11.0001 3.93826 11.0001L19.5241 11.0001L14.2312 5.7071C13.8406 5.31658 13.8406 4.68341 14.2312 4.29289C14.6217 3.90237 15.2548 3.90237 15.6454 4.2929L22.6454 11.293C22.8329 11.4805 22.9383 11.7348 22.9383 12.0001C22.9383 12.2653 22.8329 12.5196 22.6454 12.7072L15.6454 19.7071C15.2548 20.0976 14.6217 20.0976 14.2312 19.7071Z" fill="#141818"/>
</svg>
