<svg width="25" height="24" viewBox="0 0 25 24" fill="none" xmlns="http://www.w3.org/2000/svg">
<path fill-rule="evenodd" clip-rule="evenodd" d="M12.9945 2.33989C12.9945 2.33968 12.9946 2.34011 12.9945 2.33989C12.8067 1.88645 12.1944 1.8867 12.007 2.34065L9.43835 8.56919L2.98882 9.20635C2.5192 9.25279 2.32909 9.86537 2.68326 10.1921L7.54436 14.6824L6.23819 20.8007L6.1303 21.3061C6.02701 21.7894 6.52354 22.1672 6.92978 21.915L7.45482 21.5892L12.5009 18.4571L17.5479 21.5933L18.0729 21.9195C18.4791 22.1716 18.9756 21.7939 18.8723 21.3105L18.7647 20.8061L18.7644 20.8051L17.4574 14.6824L21.8732 10.602L22.3167 10.1921C22.6709 9.86444 22.4808 9.25277 22.0112 9.20635L15.5632 8.56919L12.9949 2.3414C12.9948 2.34137 12.9946 2.33993 12.9945 2.33989ZM12.5008 6.38921L10.8296 10.4415L6.37697 10.8814L9.73808 13.986L8.79506 18.4033L12.5015 16.1028L16.2071 18.4054L15.2638 13.9863L18.6239 10.8814L14.1719 10.4415L12.5008 6.38921Z" fill="#141818"/>
</svg>
