<svg width="50" height="50" viewBox="0 0 50 50" fill="none" xmlns="http://www.w3.org/2000/svg">
<path d="M45.185 38.8932L34.1433 27.8516H32.0808L26.7891 33.1432V35.2057L37.8308 46.2474C38.6433 47.0599 39.9558 47.0599 40.7683 46.2474L45.185 41.8307C45.9975 41.0391 45.9975 39.7057 45.185 38.8932ZM39.2891 41.8516L30.4558 33.0182L31.935 31.5391L40.7683 40.3724L39.2891 41.8516Z" fill="#141818"/>
<path d="M36.1641 22.2682L39.1016 19.3307L43.5183 23.7474C45.9558 21.3099 45.9558 17.3516 43.5183 14.9141L36.1433 7.53906L33.2058 10.4766V4.60156L31.7475 3.12239L24.3725 10.4974L25.8516 11.9766H31.7475L28.81 14.9141L31.0183 17.1224L24.9975 23.1432L16.3933 14.5391V11.5807L10.1016 5.28906L4.20581 11.1849L10.5183 17.4974H13.4558L22.06 26.1016L20.2891 27.8724H15.8725L4.83081 38.9141C4.01831 39.7266 4.01831 41.0391 4.83081 41.8516L9.24748 46.2682C10.06 47.0807 11.3725 47.0807 12.185 46.2682L23.2266 35.2266V30.8099L33.9558 20.0807L36.1641 22.2682ZM19.5391 32.9974L10.7058 41.8307L9.22664 40.3516L18.06 31.5182L19.5391 32.9974Z" fill="#141818"/>
</svg>
