<svg width="48" height="48" viewBox="0 0 48 48" fill="none" xmlns="http://www.w3.org/2000/svg">
<path d="M33 6C31.08 6 29.2 6.5 27.54 7.38L24 18H30L24 38L26 20H20L23.08 9.22C20.94 7.22 18.02 6 15 6C8.84 6 4 10.84 4 17C4 25.26 12.32 31.36 24 42C34.94 32.12 44 25.48 44 17C44 10.84 39.16 6 33 6ZM20.48 33.46C12.9 26.68 8 22 8 17C8 13.08 11.08 10 15 10C16.18 10 17.38 10.3 18.46 10.84L14.7 24H21.54L20.48 33.46ZM30.26 31.06L35.38 14H29.56L30.78 10.36C31.5 10.12 32.26 10 33 10C36.92 10 40 13.08 40 17C40 21.42 35.96 25.86 30.26 31.06Z" fill="#141818"/>
</svg>
