<svg width="25" height="24" viewBox="0 0 25 24" fill="none" xmlns="http://www.w3.org/2000/svg">
<path fill-rule="evenodd" clip-rule="evenodd" d="M16.6892 8C16.6892 10.2091 14.8984 12 12.6892 12C10.4801 12 8.68922 10.2091 8.68922 8C8.68922 5.79086 10.4801 4 12.6892 4C14.8984 4 16.6892 5.79086 16.6892 8ZM16.4627 12.6651C17.8209 11.5651 18.6892 9.88394 18.6892 8C18.6892 4.68629 16.0029 2 12.6892 2C9.37551 2 6.68922 4.68629 6.68922 8C6.68922 9.88394 7.5575 11.5651 8.91572 12.6651C5.48684 13.9236 2.95727 16.8508 2.70891 20.4308C2.64656 21.3295 3.37975 22 4.18922 22H21.1892C21.9987 22 22.7319 21.3295 22.6695 20.4308C22.4212 16.8508 19.8916 13.9236 16.4627 12.6651ZM12.6892 14C8.56774 14 5.31751 16.6878 4.77073 20H20.6077C20.0609 16.6878 16.8107 14 12.6892 14Z" fill="#141818"/>
</svg>
