<svg width="25" height="25" viewBox="0 0 25 25" fill="none" xmlns="http://www.w3.org/2000/svg">
<g clip-path="url(#clip0_9381_29092)">
<path d="M15.3917 13.4647C17.3538 12.4782 18.7001 10.4467 18.7001 8.10083C18.7001 4.78712 16.0139 2.10083 12.7001 2.10083C9.38644 2.10083 6.70015 4.78712 6.70015 8.10083C6.70015 10.4467 8.04647 12.4782 10.0086 13.4647C6.52408 14.4342 3.95086 17.2361 3.71744 20.6008C3.69833 20.8763 3.92401 21.1008 4.20015 21.1008H21.2001C21.4763 21.1008 21.702 20.8763 21.6829 20.6008C21.4494 17.2361 18.8762 14.4342 15.3917 13.4647Z" fill="#141818"/>
<path fill-rule="evenodd" clip-rule="evenodd" d="M18.7001 8.10083C18.7001 9.98507 17.8316 11.6664 16.4731 12.7664C20.0832 14.092 22.7002 17.2669 22.7002 21.1008C22.7002 21.6531 22.2525 22.1008 21.7002 22.1008H3.7002C3.14791 22.1008 2.7002 21.6531 2.7002 21.1008C2.7002 17.2669 5.31721 14.092 8.92733 12.7664C7.56875 11.6664 6.70015 9.98507 6.70015 8.10083C6.70015 4.78712 9.38644 2.10083 12.7001 2.10083C16.0139 2.10083 18.7001 4.78712 18.7001 8.10083ZM12.7002 12.1008C14.9093 12.1008 16.7002 10.31 16.7002 8.10083C16.7002 5.89169 14.9093 4.10083 12.7002 4.10083C10.4911 4.10083 8.7002 5.89169 8.7002 8.10083C8.7002 10.31 10.4911 12.1008 12.7002 12.1008ZM4.78267 20.1008H20.6177C20.0675 16.7852 16.8247 14.1008 12.7002 14.1008C8.57574 14.1008 5.33285 16.7852 4.78267 20.1008Z" fill="#141818"/>
</g>
<defs>
<clipPath id="clip0_9381_29092">
<rect width="24" height="24" fill="white" transform="translate(0.699951 0.10083)"/>
</clipPath>
</defs>
</svg>
