<svg width="50" height="50" viewBox="0 0 50 50" fill="none" xmlns="http://www.w3.org/2000/svg">
<path d="M29.1666 22.9167C29.1666 20.625 27.2916 18.75 24.9999 18.75C22.7083 18.75 20.8333 20.625 20.8333 22.9167C20.8333 25.2083 22.7083 27.0833 24.9999 27.0833C27.2916 27.0833 29.1666 25.2083 29.1666 22.9167ZM16.6249 38.0208C16.0208 36.1458 15.4374 33.9792 15.0416 31.7708L12.4999 33.4792V39.6875L16.6249 38.0208ZM24.9999 4.16666C24.9999 4.16666 35.4166 8.33332 35.4166 27.0833L39.8124 30.0208C40.9791 30.7917 41.6666 32.1042 41.6666 33.4792V45.8333L31.2499 41.6667H18.7499L8.33325 45.8333V33.4792C8.33325 32.0833 9.02075 30.7917 10.1874 30.0208L14.5833 27.0833C14.5833 8.33332 24.9999 4.16666 24.9999 4.16666ZM24.9999 9.08332C24.9999 9.08332 18.7499 13.2917 18.7499 27.0833C18.7499 31.7708 20.8333 37.5 20.8333 37.5H29.1666C29.1666 37.5 31.2499 31.7708 31.2499 27.0833C31.2499 13.2917 24.9999 9.08332 24.9999 9.08332ZM37.4999 39.6875V33.4792L34.9583 31.7917C34.5624 33.9792 33.9791 36.1667 33.3749 38.0417L37.4999 39.6875Z" fill="#141818"/>
</svg>
