<svg width="24" height="24" viewBox="0 0 24 24" fill="none" xmlns="http://www.w3.org/2000/svg">
<path d="M12 2C6.486 2 2 6.486 2 12C2 17.514 6.486 22 12 22C17.514 22 22 17.514 22 12C22 6.486 17.514 2 12 2ZM12 20C7.589 20 4 16.411 4 12C4 7.589 7.589 4 12 4C16.411 4 20 7.589 20 12C20 16.411 16.411 20 12 20Z" fill="#141818"/>
<path d="M11 11.6002C11 11.2689 11.2686 11.0002 11.6 11.0002H12.4C12.7314 11.0002 13 11.2689 13 11.6002V16.4002C13 16.7316 12.7314 17.0002 12.4 17.0002H11.6C11.2686 17.0002 11 16.7316 11 16.4002V11.6002ZM11 7.60024C11 7.26887 11.2686 7.00024 11.6 7.00024H12.4C12.7314 7.00024 13 7.26887 13 7.60024V8.40024C13 8.73162 12.7314 9.00024 12.4 9.00024H11.6C11.2686 9.00024 11 8.73162 11 8.40024V7.60024Z" fill="#141818"/>
</svg>
