<svg width="50" height="50" viewBox="0 0 50 50" fill="none" xmlns="http://www.w3.org/2000/svg">
<path d="M38.0496 26.9583L31.2996 23.5833C33.9871 21.5 35.7162 18.25 35.7162 14.5833C35.7162 8.27083 30.5704 3.125 24.2579 3.125C17.9454 3.125 12.7996 8.27083 12.7996 14.5833C12.7996 19.0208 15.3412 22.875 19.0496 24.7708V31.5625C14.5704 30.6042 14.8412 30.6458 14.3412 30.6458C13.2371 30.6458 12.1954 31.0833 11.4037 31.875L8.48706 34.8333L19.0912 45.4375C19.9871 46.3542 21.2371 46.875 22.5287 46.875H35.6537C37.6954 46.875 39.4246 45.4167 39.7579 43.3958L41.4246 33.5833C41.8829 30.875 40.5287 28.2083 38.0496 26.9583ZM37.3204 32.8958L35.6537 42.7083H22.5287C22.3412 42.7083 22.1746 42.625 22.0287 42.5L14.3621 34.8333L23.2162 36.6875V14.5833C23.2162 14 23.6746 13.5417 24.2579 13.5417C24.8412 13.5417 25.2996 14 25.2996 14.5833V27.0833H28.9662L36.1746 30.6875C37.0079 31.1042 37.4662 32 37.3204 32.8958ZM16.9662 14.5833C16.9662 10.5625 20.2371 7.29167 24.2579 7.29167C28.2787 7.29167 31.5496 10.5625 31.5496 14.5833C31.5496 16.5625 30.7579 18.3542 29.4662 19.6667V14.5833C29.4662 11.7083 27.1329 9.375 24.2579 9.375C21.3829 9.375 19.0496 11.7083 19.0496 14.5833V19.6667C17.7579 18.3542 16.9662 16.5625 16.9662 14.5833Z" fill="#141818"/>
</svg>
