<svg width="25" height="24" viewBox="0 0 25 24" fill="none" xmlns="http://www.w3.org/2000/svg">
<path fill-rule="evenodd" clip-rule="evenodd" d="M3.24229 15.6391C3.63887 15.2547 4.27196 15.2646 4.65633 15.6612L7.43826 18.5314L7.43826 8C7.43826 7.44772 7.88598 7 8.43826 7C8.99055 7 9.43826 7.44772 9.43826 8L9.43826 18.5314L12.2202 15.6612C12.6046 15.2646 13.2377 15.2547 13.6342 15.6391C14.0308 16.0234 14.0407 16.6565 13.6563 17.0531L9.15633 21.696C8.96798 21.8903 8.7089 22 8.43826 22C8.16763 22 7.90855 21.8903 7.7202 21.696L3.2202 17.0531C2.83582 16.6565 2.84571 16.0234 3.24229 15.6391Z" fill="#141818"/>
<path fill-rule="evenodd" clip-rule="evenodd" d="M22.6342 8.36092C22.2377 8.7453 21.6046 8.73541 21.2202 8.33883L18.4383 5.46858V16C18.4383 16.5523 17.9905 17 17.4383 17C16.886 17 16.4383 16.5523 16.4383 16V5.46858L13.6563 8.33883C13.272 8.73541 12.6389 8.7453 12.2423 8.36092C11.8457 7.97655 11.8358 7.34346 12.2202 6.94688L16.7202 2.30403C16.9086 2.10969 17.1676 2 17.4383 2C17.7089 2 17.968 2.10969 18.1563 2.30403L22.6563 6.94688C23.0407 7.34346 23.0308 7.97655 22.6342 8.36092Z" fill="#141818"/>
</svg>
