<svg width="25" height="25" viewBox="0 0 25 25" fill="none" xmlns="http://www.w3.org/2000/svg">
<g clip-path="url(#clip0_9381_29067)">
<path fill-rule="evenodd" clip-rule="evenodd" d="M17.5152 2.44132C18.7775 2.12574 20.0002 3.08046 20.0002 4.3816V6.10082C20.0002 7.20539 19.1048 8.10082 18.0002 8.10082H3.00024V6.10083L17.5152 2.44132ZM11.1233 6.10082H18.0002V4.3816L11.1233 6.10082Z" fill="#141818"/>
<path fill-rule="evenodd" clip-rule="evenodd" d="M22.9001 8.38654V8.10083C22.9001 6.99626 22.0047 6.10083 20.9001 6.10083H2.90015V20.1008C2.90015 21.2054 3.79558 22.1008 4.90015 22.1008H20.9001C22.0047 22.1008 22.9001 21.2054 22.9001 20.1008V8.38654ZM15.0002 14.1008C15.0002 12.9963 15.8957 12.1008 17.0002 12.1008H19.0002H21.0002V13.2437V14.1008V14.958V16.1008H19.0002H17.0002C15.8957 16.1008 15.0002 15.2054 15.0002 14.1008Z" fill="#141818"/>
</g>
<defs>
<clipPath id="clip0_9381_29067">
<rect width="24" height="24" fill="white" transform="translate(0.900146 0.10083)"/>
</clipPath>
</defs>
</svg>
