<svg width="50" height="50" viewBox="0 0 50 50" fill="none" xmlns="http://www.w3.org/2000/svg">
<path d="M39.5833 18.75L42.1874 13.0208L47.9166 10.4167L42.1874 7.8125L39.5833 2.08334L36.9791 7.8125L31.2499 10.4167L36.9791 13.0208L39.5833 18.75Z" fill="#141818"/>
<path d="M39.5833 31.25L36.9791 36.9792L31.2499 39.5833L36.9791 42.1875L39.5833 47.9167L42.1874 42.1875L47.9166 39.5833L42.1874 36.9792L39.5833 31.25Z" fill="#141818"/>
<path d="M23.9583 19.7917L18.7499 8.33334L13.5416 19.7917L2.08325 25L13.5416 30.2083L18.7499 41.6667L23.9583 30.2083L35.4166 25L23.9583 19.7917ZM20.8124 27.0625L18.7499 31.6042L16.6874 27.0625L12.1458 25L16.6874 22.9375L18.7499 18.3958L20.8124 22.9375L25.3541 25L20.8124 27.0625Z" fill="#141818"/>
</svg>
