<svg width="24" height="24" viewBox="0 0 24 24" fill="none" xmlns="http://www.w3.org/2000/svg">
<path fill-rule="evenodd" clip-rule="evenodd" d="M11.1542 1.18763C11.6903 0.937456 12.3097 0.937455 12.8458 1.18763L20.8458 4.92097C21.5499 5.24957 22 5.95628 22 6.73333V7.09647C22 8.20104 21.1046 9.09647 20 9.09647H19V16.0964H20C21.1046 16.0964 22 16.9919 22 18.0964V20.0964C22 21.201 21.1046 22.0964 20 22.0964H4C2.89543 22.0964 2 21.201 2 20.0964V18.0964C2 16.9919 2.89543 16.0964 4 16.0964H5V9.09647H4C2.89543 9.09647 2 8.20104 2 7.09647V6.73333C2 5.95628 2.45008 5.24957 3.15423 4.92097L11.1542 1.18763ZM5 7.09647H4L4 6.73333L12 3L20 6.73333V7.09647H19V7.09642H17H15H13H11H9H7H5V7.09647ZM11 9.09647V16.0964H13V9.09647H11ZM11 18.0964H9H7H5H4V20.0964H20V18.0964H19H17H15H13H11ZM7 9.09647V16.0964H9V9.09647H7ZM17 9.09647H15V16.0964H17V9.09647Z" fill="#141818"/>
</svg>
