<svg width="25" height="25" viewBox="0 0 25 25" fill="none" xmlns="http://www.w3.org/2000/svg">
<g clip-path="url(#clip0_9381_29061)">
<path d="M2.2998 12.1008C2.2998 10.9963 3.19524 10.1008 4.2998 10.1008H5.7998C6.90437 10.1008 7.7998 10.9963 7.7998 12.1008V20.1008C7.7998 21.2054 6.90437 22.1008 5.7998 22.1008H4.2998C3.19524 22.1008 2.2998 21.2054 2.2998 20.1008V12.1008Z" fill="#141818"/>
<path d="M9.5498 8.10083C9.5498 6.99626 10.4452 6.10083 11.5498 6.10083H13.0498C14.1544 6.10083 15.0498 6.99626 15.0498 8.10083V20.1008C15.0498 21.2054 14.1544 22.1008 13.0498 22.1008H11.5498C10.4452 22.1008 9.5498 21.2054 9.5498 20.1008V8.10083Z" fill="#141818"/>
<path d="M16.7998 4.10083C16.7998 2.99626 17.6952 2.10083 18.7998 2.10083H20.2998C21.4044 2.10083 22.2998 2.99626 22.2998 4.10083V20.1008C22.2998 21.2054 21.4044 22.1008 20.2998 22.1008H18.7998C17.6952 22.1008 16.7998 21.2054 16.7998 20.1008V4.10083Z" fill="#141818"/>
</g>
<defs>
<clipPath id="clip0_9381_29061">
<rect width="24" height="24" fill="white" transform="translate(0.299805 0.10083)"/>
</clipPath>
</defs>
</svg>
