<svg width="48" height="48" viewBox="0 0 48 48" fill="none" xmlns="http://www.w3.org/2000/svg">
<g clip-path="url(#clip0_9381_13823)">
<path fill-rule="evenodd" clip-rule="evenodd" d="M16.2457 10.3587C16.8917 8.92326 18.3194 8.00012 19.8934 8.00012H28.1071C29.6811 8.00012 31.1089 8.92326 31.7548 10.3587L32.4935 12.0001H40.0003C42.2094 12.0001 44.0003 13.791 44.0003 16.0001V36.0002C44.0003 38.2093 42.2094 40.0002 40.0003 40.0002H8.00025C5.79111 40.0002 4.00024 38.2093 4.00024 36.0002V16.0001C4.00024 13.791 5.79111 12.0001 8.00025 12.0001H15.5071L16.2457 10.3587ZM28.1071 12.0001H19.8934L19.1548 13.6416C18.5088 15.077 17.0811 16.0001 15.5071 16.0001H8.00025V36.0002H40.0003V16.0001H32.4935C30.9194 16.0001 29.4917 15.077 28.8458 13.6416L28.1071 12.0001Z" fill="#141818"/>
<path fill-rule="evenodd" clip-rule="evenodd" d="M24.0003 29.0001C26.2094 29.0001 28.0003 27.2093 28.0003 25.0001C28.0003 22.791 26.2094 21.0001 24.0003 21.0001C21.7911 21.0001 20.0003 22.791 20.0003 25.0001C20.0003 27.2093 21.7911 29.0001 24.0003 29.0001ZM24.0003 33.0002C28.4186 33.0002 32.0003 29.4184 32.0003 25.0001C32.0003 20.5819 28.4186 17.0001 24.0003 17.0001C19.582 17.0001 16.0003 20.5819 16.0003 25.0001C16.0003 29.4184 19.582 33.0002 24.0003 33.0002Z" fill="#141818"/>
</g>
<defs>
<clipPath id="clip0_9381_13823">
<rect width="48.0001" height="48.0001" fill="white" transform="translate(0.000244141 0.000244141)"/>
</clipPath>
</defs>
</svg>
