<svg width="50" height="50" viewBox="0 0 50 50" fill="none" xmlns="http://www.w3.org/2000/svg">
<path d="M25.0022 4.93884C13.9078 4.93884 4.93994 13.9067 4.93994 25.0011C4.93994 36.0956 13.9078 45.0634 25.0022 45.0634C36.0967 45.0634 45.0645 36.0956 45.0645 25.0011C45.0645 13.9067 36.0967 4.93884 25.0022 4.93884ZM33.629 33.6279C32.8466 34.4103 31.5827 34.4103 30.8002 33.6279L25.0022 27.8299L19.2042 33.6279C18.4218 34.4103 17.1579 34.4103 16.3754 33.6279C15.593 32.8455 15.593 31.5816 16.3754 30.7991L22.1734 25.0011L16.3754 19.2031C15.593 18.4207 15.593 17.1568 16.3754 16.3743C17.1579 15.5919 18.4218 15.5919 19.2042 16.3743L25.0022 22.1723L30.8002 16.3743C31.5827 15.5919 32.8466 15.5919 33.629 16.3743C34.4114 17.1568 34.4114 18.4207 33.629 19.2031L27.831 25.0011L33.629 30.7991C34.3914 31.5615 34.3914 32.8455 33.629 33.6279Z" fill="#141818"/>
</svg>
