<svg width="48" height="48" viewBox="0 0 48 48" fill="none" xmlns="http://www.w3.org/2000/svg">
<path d="M2.45996 44.54L30.46 34.54L12.46 16.54L2.45996 44.54ZM23.16 32.9L9.05996 37.94L14.1 23.84L23.16 32.9Z" fill="#141818"/>
<path d="M27.52 25.6L38.7 14.42C39.68 13.44 41.26 13.44 42.24 14.42L43.42 15.6L45.54 13.48L44.36 12.3C42.22 10.16 38.72 10.16 36.58 12.3L25.4 23.48L27.52 25.6Z" fill="#141818"/>
<path d="M18.58 14.3L17.4 15.48L19.52 17.6L20.7 16.42C22.84 14.28 22.84 10.78 20.7 8.63996L19.52 7.45996L17.4 9.59996L18.58 10.78C19.54 11.74 19.54 13.34 18.58 14.3Z" fill="#141818"/>
<path d="M32.58 24.3L29.4 27.48L31.52 29.6L34.7 26.42C35.68 25.44 37.26 25.44 38.24 26.42L41.46 29.64L43.58 27.52L40.36 24.3C38.2 22.16 34.72 22.16 32.58 24.3Z" fill="#141818"/>
<path d="M28.58 12.3L21.4 19.48L23.52 21.6L30.7 14.42C32.84 12.28 32.84 8.77996 30.7 6.63996L27.52 3.45996L25.4 5.57996L28.58 8.75996C29.54 9.73996 29.54 11.34 28.58 12.3Z" fill="#141818"/>
</svg>
