<svg width="22" height="23" viewBox="0 0 22 23" fill="none" xmlns="http://www.w3.org/2000/svg">
<path fill-rule="evenodd" clip-rule="evenodd" d="M14.4345 13.0664L15.8623 11.6387L14.4345 10.2109L14.4345 10.2109L9.43737 5.21373C9.0431 4.81947 8.40387 4.81947 8.0096 5.21373C7.61534 5.608 7.61534 6.24723 8.0096 6.6415L13.0068 11.6387L8.0096 16.6358C7.61534 17.0301 7.61534 17.6693 8.0096 18.0636C8.40387 18.4579 9.0431 18.4579 9.43737 18.0636L14.4345 13.0664Z" fill="#141818"/>
<path fill-rule="evenodd" clip-rule="evenodd" d="M14.4345 13.0664L15.8623 11.6387L14.4345 10.2109L14.4345 10.2109L9.43737 5.21373C9.0431 4.81947 8.40387 4.81947 8.0096 5.21373C7.61534 5.608 7.61534 6.24723 8.0096 6.6415L13.0068 11.6387L8.0096 16.6358C7.61534 17.0301 7.61534 17.6693 8.0096 18.0636C8.40387 18.4579 9.0431 18.4579 9.43737 18.0636L14.4345 13.0664Z" fill="#141818"/>
</svg>
