<svg width="36" height="40" viewBox="0 0 36 40" fill="none" xmlns="http://www.w3.org/2000/svg">
<path fill-rule="evenodd" clip-rule="evenodd" d="M8.12045 1.31651C8.40786 0.526135 9.15903 0 10 0H26C26.6276 0 27.2188 0.29458 27.5967 0.795609C27.9746 1.29664 28.0955 1.94601 27.9231 2.54944L24.6515 14H34C34.7728 14 35.4764 14.4452 35.8074 15.1435C36.1383 15.8419 36.0373 16.6684 35.548 17.2665L17.548 39.2665C16.9473 40.0007 15.9134 40.2119 15.0729 39.7721C14.2324 39.3324 13.8164 38.3627 14.077 37.4506L17.3486 26H2.00001C1.34759 26 0.736171 25.6818 0.361877 25.1474C-0.0124175 24.613 -0.102536 23.9297 0.120426 23.3165L8.12045 1.31651ZM11.4009 4L4.85542 22H20C20.6276 22 21.2188 22.2946 21.5967 22.7956C21.9746 23.2966 22.0955 23.946 21.9231 24.5494L20.5828 29.2405L29.7796 18H22C21.3724 18 20.7812 17.7054 20.4033 17.2044C20.0254 16.7034 19.9046 16.054 20.077 15.4506L23.3486 4H11.4009Z" fill="#171717"/>
</svg>
