<svg width="24" height="24" viewBox="0 0 24 24" fill="none" xmlns="http://www.w3.org/2000/svg">
<path fill-rule="evenodd" clip-rule="evenodd" d="M5 19C5 19.5523 4.55228 20 4 20C3.44772 20 3 19.5523 3 19V4C3 2.89543 3.89543 2 5 2H18C18.5523 2 19 2.44772 19 3C19 3.55229 18.5523 4 18 4L5 4L5 19ZM8 22C7.44772 22 7 21.5523 7 21L7 7C7 6.73478 7.10536 6.48043 7.29289 6.29289C7.48043 6.10536 7.73478 6 8 6L20 6C20.2652 6 20.5196 6.10536 20.7071 6.29289C20.8946 6.48043 21 6.73478 21 7L21 21C21 21.5523 20.5523 22 20 22L8 22ZM9 8L9 20L19 20L19 8L9 8Z" fill="#141818"/>
</svg>
