<svg width="48" height="48" viewBox="0 0 48 48" fill="none" xmlns="http://www.w3.org/2000/svg">
<g clip-path="url(#clip0_9381_13819)">
<path fill-rule="evenodd" clip-rule="evenodd" d="M16 8.00028V4.00027H30C32.2092 4.00027 34 5.79114 34 8.00028V18.0003H30V8.00028H16ZM8.00001 16.0003V40.0003H30V35.0003H34V40.0003C34 42.2095 32.2092 44.0003 30 44.0003H8.00001C5.79086 44.0003 4 42.2095 4 40.0003V16.0003H8.00001Z" fill="#141818"/>
<path fill-rule="evenodd" clip-rule="evenodd" d="M17.4142 4.58606C18.1953 5.36711 18.1953 6.63344 17.4142 7.41449L7.41422 17.4145C6.63317 18.1956 5.36684 18.1956 4.58579 17.4145C3.80474 16.6335 3.80474 15.3671 4.58579 14.5861L14.5858 4.58606C15.3668 3.80501 16.6332 3.80501 17.4142 4.58606Z" fill="#141818"/>
<path fill-rule="evenodd" clip-rule="evenodd" d="M26.3566 30.8125C28.9522 33.4081 33.1605 33.4081 35.7561 30.8125C38.3517 28.2169 38.3517 24.0086 35.7561 21.413C33.1605 18.8174 28.9522 18.8174 26.3566 21.413C23.761 24.0086 23.761 28.2169 26.3566 30.8125ZM23.5282 33.641C27.6859 37.7987 34.4269 37.7987 38.5846 33.641C42.7423 29.4833 42.7423 22.7423 38.5846 18.5846C34.4269 14.4269 27.6859 14.4269 23.5282 18.5846C19.3705 22.7423 19.3705 29.4833 23.5282 33.641Z" fill="#141818"/>
<path fill-rule="evenodd" clip-rule="evenodd" d="M36.9204 30.9206C37.7014 30.1395 38.9677 30.1395 39.7488 30.9206L45.4057 36.5774C46.1867 37.3585 46.1867 38.6248 45.4057 39.4059C44.6246 40.1869 43.3583 40.1869 42.5772 39.4059L36.9204 33.749C36.1393 32.968 36.1393 31.7016 36.9204 30.9206Z" fill="#141818"/>
<path fill-rule="evenodd" clip-rule="evenodd" d="M18 4.00027C19.1046 4.00027 20 4.89571 20 6.00028V16.0003C20 18.2094 18.2092 20.0003 16 20.0003H6C4.89543 20.0003 4 19.1049 4 18.0003C4 16.8957 4.89543 16.0003 6 16.0003H16V6.00028C16 4.89571 16.8954 4.00027 18 4.00027Z" fill="#141818"/>
</g>
<defs>
<clipPath id="clip0_9381_13819">
<rect width="48.0001" height="48.0001" fill="white" transform="translate(0 0.000244141)"/>
</clipPath>
</defs>
</svg>
