<svg width="25" height="25" viewBox="0 0 25 25" fill="none" xmlns="http://www.w3.org/2000/svg">
<path fill-rule="evenodd" clip-rule="evenodd" d="M19.3661 21.1339C19.8543 21.622 20.6457 21.622 21.1339 21.1339C21.622 20.6457 21.622 19.8543 21.1339 19.3661L14.0178 12.25L21.1339 5.13388C21.622 4.64573 21.622 3.85427 21.1339 3.36612C20.6457 2.87796 19.8543 2.87796 19.3661 3.36612L12.25 10.4822L5.13388 3.36612C4.64573 2.87796 3.85427 2.87796 3.36612 3.36612C2.87796 3.85427 2.87796 4.64573 3.36612 5.13388L10.4822 12.25L3.36612 19.3661C2.87796 19.8543 2.87796 20.6457 3.36612 21.1339C3.85427 21.622 4.64573 21.622 5.13388 21.1339L12.25 14.0178L19.3661 21.1339Z" fill="#141818"/>
</svg>
