<svg width="24" height="24" viewBox="0 0 24 24" fill="none" xmlns="http://www.w3.org/2000/svg">
<path fill-rule="evenodd" clip-rule="evenodd" d="M20 12C20 16.4183 16.4183 20 12 20C7.58172 20 4 16.4183 4 12C4 7.58172 7.58172 4 12 4C16.4183 4 20 7.58172 20 12ZM22 12C22 17.5228 17.5228 22 12 22C6.47715 22 2 17.5228 2 12C2 6.47715 6.47715 2 12 2C17.5228 2 22 6.47715 22 12ZM13.3471 10.1459L12 6L10.6529 10.1459H6.29366L9.82037 12.7082L8.47329 16.8541L12 14.2918L15.5267 16.8541L14.1796 12.7082L17.7063 10.1459H13.3471Z" fill="#141818"/>
</svg>
