<svg width="25" height="24" viewBox="0 0 25 24" fill="none" xmlns="http://www.w3.org/2000/svg">
<path fill-rule="evenodd" clip-rule="evenodd" d="M20.9383 12C20.9383 16.4183 17.3565 20 12.9383 20C8.51998 20 4.93826 16.4183 4.93826 12C4.93826 7.58172 8.51998 4 12.9383 4C17.3565 4 20.9383 7.58172 20.9383 12ZM22.9383 12C22.9383 17.5228 18.4611 22 12.9383 22C7.41542 22 2.93826 17.5228 2.93826 12C2.93826 6.47715 7.41542 2 12.9383 2C18.4611 2 22.9383 6.47715 22.9383 12ZM11.6677 13.9729V14.1508H13.6372V13.9729C13.6407 13.631 13.684 13.3432 13.7671 13.1094C13.8538 12.8757 13.9837 12.6698 14.1569 12.4919C14.3336 12.314 14.5588 12.143 14.8325 11.9791C15.1581 11.7837 15.4405 11.5657 15.6795 11.3249C15.9186 11.0807 16.1039 10.8016 16.2356 10.4876C16.3707 10.1702 16.4383 9.80733 16.4383 9.39914C16.4383 8.78861 16.2876 8.26705 15.9861 7.83444C15.6847 7.40184 15.269 7.07215 14.7389 6.84539C14.2089 6.61513 13.5991 6.5 12.9097 6.5C12.2826 6.5 11.7092 6.61338 11.1896 6.84015C10.6699 7.06343 10.2524 7.40358 9.93715 7.86061C9.62188 8.31415 9.45559 8.88979 9.43826 9.58754H11.5585C11.5689 9.30146 11.6382 9.06248 11.7664 8.8706C11.8946 8.67523 12.0591 8.5287 12.2601 8.43102C12.461 8.32984 12.6741 8.27926 12.8993 8.27926C13.1314 8.27926 13.3427 8.3281 13.5333 8.42579C13.7273 8.52347 13.8815 8.66302 13.9958 8.84443C14.1101 9.02585 14.1673 9.23692 14.1673 9.47764C14.1673 9.70441 14.1171 9.91024 14.0166 10.0951C13.9161 10.2766 13.781 10.4423 13.6112 10.5923C13.4415 10.7423 13.2492 10.8871 13.0344 11.0266C12.7469 11.2081 12.5009 11.4104 12.2965 11.6337C12.0921 11.857 11.9362 12.15 11.8288 12.5128C11.7248 12.8757 11.6711 13.3624 11.6677 13.9729ZM11.808 17.1337C12.054 17.3779 12.3502 17.5 12.6966 17.5C12.9183 17.5 13.1227 17.4442 13.3098 17.3325C13.4969 17.2174 13.6476 17.0657 13.7619 16.8773C13.8797 16.6854 13.9404 16.4743 13.9438 16.2441C13.9404 15.9022 13.8139 15.6091 13.5645 15.3649C13.315 15.1207 13.0257 14.9986 12.6966 14.9986C12.3502 14.9986 12.054 15.1207 11.808 15.3649C11.5655 15.6091 11.4459 15.9022 11.4494 16.2441C11.4459 16.5894 11.5655 16.886 11.808 17.1337Z" fill="#141818"/>
</svg>
