<svg width="24" height="23" viewBox="0 0 24 23" fill="none" xmlns="http://www.w3.org/2000/svg">
<path fill-rule="evenodd" clip-rule="evenodd" d="M10.7939 1.40458C11.5075 0.86514 12.4925 0.865139 13.2061 1.40458L21.2061 7.45232C21.7061 7.83033 22 8.42091 22 9.04774V19.7464C22 20.851 21.1046 21.7464 20 21.7464H15C13.8954 21.7464 13 20.851 13 19.7464V14.5501H11V19.7464C11 20.851 10.1046 21.7464 9 21.7464H4C2.89543 21.7464 2 20.851 2 19.7464V9.04774C2 8.42091 2.29388 7.83033 2.79391 7.45233L10.7939 1.40458ZM20 9.04774L12 3L4 9.04774L4 19.7464H9V14.5501C9 13.4456 9.89543 12.5501 11 12.5501H13C14.1046 12.5501 15 13.4456 15 14.5501V19.7464H20V9.04774Z" fill="#141818"/>
</svg>
