<svg width="25" height="25" viewBox="0 0 25 25" fill="none" xmlns="http://www.w3.org/2000/svg">
<g clip-path="url(#clip0_9381_29075)">
<path d="M22.4508 11.1022C21.9823 6.37669 18.2241 2.61858 13.4986 2.15007C12.949 2.09558 12.5 2.54855 12.5 3.10083V11.1008C12.5 11.6531 12.9477 12.1008 13.5 12.1008H21.5C22.0523 12.1008 22.5053 11.6518 22.4508 11.1022Z" fill="#141818"/>
<path d="M2.5 12.5416C2.5 8.18275 5.37569 4.50526 9.35727 3.35533C9.9479 3.18474 10.5 3.65718 10.5 4.27195V13.1008C10.5 13.6531 10.9477 14.1008 11.5 14.1008H20.3289C20.9436 14.1008 21.4161 14.6529 21.2455 15.2436C20.0956 19.2251 16.4181 22.1009 12.0592 22.1009C6.77982 22.1009 2.5 17.821 2.5 12.5416Z" fill="#141818"/>
</g>
<defs>
<clipPath id="clip0_9381_29075">
<rect width="24" height="24" fill="white" transform="translate(0.5 0.10083)"/>
</clipPath>
</defs>
</svg>
