<svg width="25" height="24" viewBox="0 0 25 24" fill="none" xmlns="http://www.w3.org/2000/svg">
<path fill-rule="evenodd" clip-rule="evenodd" d="M22.7008 10.9566C22.7553 11.5062 22.3023 11.9552 21.75 11.9552H13.75C13.1977 11.9552 12.75 11.5075 12.75 10.9552V2.95522C12.75 2.40293 13.199 1.94996 13.7486 2.00445C18.4741 2.47297 22.2323 6.23108 22.7008 10.9566ZM14.75 4.20725C17.5612 4.93081 19.7744 7.144 20.498 9.95522L14.75 9.95522V4.20725ZM9.60727 3.20971C5.62569 4.35965 2.75 8.03714 2.75 12.396C2.75 17.6754 7.02982 21.9552 12.3092 21.9552C16.6681 21.9552 20.3456 19.0795 21.4955 15.0979C21.6661 14.5073 21.1936 13.9552 20.5789 13.9552H20.5225C20.0469 13.9552 19.6439 14.2931 19.4988 14.746C18.5258 17.7821 15.6748 19.9428 12.3092 19.9428C8.14128 19.9428 4.76247 16.564 4.76247 12.396C4.76247 9.03046 6.92313 6.17945 9.95917 5.20643C10.4121 5.06128 10.75 4.65836 10.75 4.18276V4.12634C10.75 3.51157 10.1979 3.03913 9.60727 3.20971Z" fill="#141818"/>
</svg>
