<svg width="24" height="24" viewBox="0 0 24 24" fill="none" xmlns="http://www.w3.org/2000/svg">
<path fill-rule="evenodd" clip-rule="evenodd" d="M16.8501 18.3627C15.5045 19.3899 13.8235 20 12 20C10.1765 20 8.49545 19.3899 7.14991 18.3627C7.14997 18.3584 7.14999 18.3542 7.14999 18.3499C7.14999 16.1378 9.20743 14.1499 12 14.1499C14.7926 14.1499 16.85 16.1378 16.85 18.3499C16.85 18.3542 16.85 18.3584 16.8501 18.3627ZM18.5673 16.5697C18.0031 14.8487 16.6417 13.476 14.9139 12.7403C15.5874 12.0245 16 11.0604 16 10C16 7.79086 14.2091 6 12 6C9.79086 6 8 7.79086 8 10C8 11.0604 8.41264 12.0245 9.08611 12.7403C7.35827 13.476 5.99694 14.8487 5.43273 16.5697C4.5296 15.2742 4 13.699 4 12C4 7.58172 7.58172 4 12 4C16.4183 4 20 7.58172 20 12C20 13.699 19.4704 15.2742 18.5673 16.5697ZM22 12C22 17.5228 17.5228 22 12 22C6.47715 22 2 17.5228 2 12C2 6.47715 6.47715 2 12 2C17.5228 2 22 6.47715 22 12ZM12 12C13.1046 12 14 11.1046 14 10C14 8.89543 13.1046 8 12 8C10.8954 8 10 8.89543 10 10C10 11.1046 10.8954 12 12 12Z" fill="#141818"/>
</svg>
