<svg width="48" height="49" viewBox="0 0 48 49" fill="none" xmlns="http://www.w3.org/2000/svg">
<g clip-path="url(#clip0_11014_46003)">
<path fill-rule="evenodd" clip-rule="evenodd" d="M14.2212 8.01855C14.8241 15.0095 16.495 20.6366 18.5395 24.5C20.9627 29.0788 23.1983 30.0186 24 30.0186C24.8017 30.0186 27.0373 29.0788 29.4605 24.5C31.505 20.6366 33.1759 15.0095 33.7788 8.01855H14.2212ZM12.0474 4.01855C10.9245 4.01855 10.0187 4.94617 10.0774 6.06754C10.9604 22.942 17.6914 34.0186 24 34.0186C30.3086 34.0186 37.0396 22.942 37.9226 6.06754C37.9813 4.94617 37.0755 4.01855 35.9526 4.01855H12.0474Z" fill="#171717"/>
<path fill-rule="evenodd" clip-rule="evenodd" d="M22 40.0187L22 32.0186L26 32.0186L26 40.0187L22 40.0187Z" fill="#171717"/>
<path fill-rule="evenodd" clip-rule="evenodd" d="M16 42.0186C16 40.914 16.8954 40.0186 18 40.0186H30C31.1046 40.0186 32 40.914 32 42.0186C32 43.1231 31.1046 44.0186 30 44.0186H18C16.8954 44.0186 16 43.1231 16 42.0186Z" fill="#171717"/>
<path fill-rule="evenodd" clip-rule="evenodd" d="M4.97641 10.2162C6.23067 8.39004 8.48459 8.01855 11 8.01855C12.1046 8.01855 13 8.91399 13 10.0186C13 11.1231 12.1046 12.0186 11 12.0186C9.83187 12.0186 9.1262 12.1205 8.70349 12.252C8.34716 12.3629 8.28445 12.4634 8.2746 12.4792C8.27418 12.4799 8.27385 12.4805 8.2736 12.4808C8.23158 12.542 8.12883 12.7397 8.06609 13.3088C8.00259 13.8849 8.00001 14.6025 8.00001 15.6184C8.00001 17.8465 8.46208 19.2975 9.40831 20.2359C10.3674 21.187 12.2347 22.0186 16 22.0186C17.1046 22.0186 18 22.914 18 24.0186C18 25.1231 17.1046 26.0186 16 26.0186C11.7653 26.0186 8.63262 25.1 6.59171 23.0761C4.53794 21.0394 4.00001 18.2904 4.00001 15.6184C4.00001 15.5936 4.00001 15.5687 4 15.5438C3.99994 14.6237 3.99987 13.6898 4.09017 12.8706C4.18368 12.0223 4.39344 11.065 4.97641 10.2162Z" fill="#171717"/>
<path fill-rule="evenodd" clip-rule="evenodd" d="M43.0236 10.2162C41.7693 8.39004 39.5154 8.01855 37 8.01855C35.8954 8.01855 35 8.91399 35 10.0186C35 11.1231 35.8954 12.0186 37 12.0186C38.1681 12.0186 38.8738 12.1205 39.2965 12.252C39.6528 12.3629 39.7155 12.4634 39.7254 12.4792C39.7258 12.4799 39.7262 12.4805 39.7264 12.4808C39.7684 12.542 39.8712 12.7397 39.9339 13.3088C39.9974 13.8849 40 14.6025 40 15.6184C40 17.8465 39.5379 19.2975 38.5917 20.2359C37.6326 21.187 35.7653 22.0186 32 22.0186C30.8954 22.0186 30 22.914 30 24.0186C30 25.1231 30.8954 26.0186 32 26.0186C36.2347 26.0186 39.3674 25.1 41.4083 23.0761C43.4621 21.0394 44 18.2904 44 15.6184C44 15.5936 44 15.5687 44 15.5438C44.0001 14.6237 44.0001 13.6898 43.9098 12.8706C43.8163 12.0223 43.6066 11.065 43.0236 10.2162Z" fill="#171717"/>
</g>
<defs>
<clipPath id="clip0_11014_46003">
<rect width="48" height="48" fill="white" transform="translate(0 0.0185547)"/>
</clipPath>
</defs>
</svg>
