<svg width="48" height="48" viewBox="0 0 48 48" fill="none" xmlns="http://www.w3.org/2000/svg">
<path fill-rule="evenodd" clip-rule="evenodd" d="M4.00024 14.0717V32.6005C4.00024 33.3569 4.42688 34.0485 5.10279 34.3879L24.0015 43.8782L42.9001 34.3879C43.576 34.0485 44.0027 33.3569 44.0027 32.6005V14.0717L24.9098 4.33878C24.3392 4.04788 23.6637 4.04788 23.0931 4.33878L4.00024 14.0717ZM8.00049 18.3187V31.3668L22.0013 38.3975V25.3494L8.00049 18.3187ZM26.0016 25.3494V38.3975L40.0024 31.3668V18.3187L26.0016 25.3494ZM37.3539 15.1724L24.0015 8.36574L10.6491 15.1724L24.0015 21.8775L37.3539 15.1724Z" fill="#171717"/>
<path fill-rule="evenodd" clip-rule="evenodd" d="M31.7792 8.76392L33.596 12.3278L14.9093 21.8537L13.0925 18.2898L31.7792 8.76392Z" fill="#171717"/>
<path fill-rule="evenodd" clip-rule="evenodd" d="M14.0009 17.8762C15.1055 17.8762 16.001 18.7717 16.001 19.8763V35.8773C16.001 36.982 15.1055 37.8774 14.0009 37.8774C12.8962 37.8774 12.0007 36.982 12.0007 35.8773V19.8763C12.0007 18.7717 12.8962 17.8762 14.0009 17.8762Z" fill="#171717"/>
</svg>
