<svg width="48" height="48" viewBox="0 0 48 48" fill="none" xmlns="http://www.w3.org/2000/svg">
<g clip-path="url(#clip0_9381_13826)">
<path fill-rule="evenodd" clip-rule="evenodd" d="M24.0003 8.00028C15.1637 8.00028 8.00025 15.1637 8.00025 24.0003C8.00025 32.8369 15.1637 40.0003 24.0003 40.0003C32.8368 40.0003 40.0003 32.8369 40.0003 24.0003C40.0003 22.8957 40.8957 22.0003 42.0003 22.0003C43.1049 22.0003 44.0003 22.8957 44.0003 24.0003C44.0003 35.046 35.046 44.0003 24.0003 44.0003C12.9546 44.0003 4.00024 35.046 4.00024 24.0003C4.00024 12.9546 12.9546 4.00027 24.0003 4.00027C30.9843 4.00027 37.1309 7.58171 40.705 12.9989C41.3133 13.9208 41.0591 15.1614 40.1371 15.7697C39.2151 16.378 37.9746 16.1237 37.3663 15.2017C34.5009 10.8588 29.5839 8.00028 24.0003 8.00028Z" fill="#141818"/>
<path fill-rule="evenodd" clip-rule="evenodd" d="M24.0003 13.2003C25.1048 13.2003 26.0003 14.0957 26.0003 15.2003V23.276L30.5367 28.7197C31.2438 29.5683 31.1292 30.8294 30.2806 31.5366C29.4321 32.2437 28.171 32.129 27.4638 31.2805L22.9274 25.8367C22.3283 25.1179 22.0003 24.2117 22.0003 23.276V15.2003C22.0003 14.0957 22.8957 13.2003 24.0003 13.2003Z" fill="#141818"/>
<path d="M34.0002 16.9995L42.0002 16.9995L42.0002 8.99951" stroke="#141818" stroke-width="3.5" stroke-linecap="round"/>
</g>
<defs>
<clipPath id="clip0_9381_13826">
<rect width="48.0001" height="48.0001" fill="white" transform="translate(0.000244141 0.000244141)"/>
</clipPath>
</defs>
</svg>
