<svg width="25" height="24" viewBox="0 0 25 24" fill="none" xmlns="http://www.w3.org/2000/svg">
<path fill-rule="evenodd" clip-rule="evenodd" d="M6.90724 6C6.81253 5.68403 6.76169 5.34375 6.76326 4.98923C6.7706 3.33525 7.90763 2 9.31608 2H11.4104C11.9943 2 12.5328 2.23097 12.9632 2.61955C13.3936 2.23097 13.9321 2 14.516 2H16.6104C18.0188 2 19.1559 3.33525 19.1632 4.98923C19.1648 5.34375 19.1139 5.68403 19.0192 6H21.9383C22.4905 6 22.9383 6.44772 22.9383 7V11C22.9383 11.5523 22.4905 12 21.9383 12H20.9383V21C20.9383 21.5523 20.4905 22 19.9383 22H14.9383H10.9383H5.93826C5.38598 22 4.93826 21.5523 4.93826 21V12H3.93826C3.38598 12 2.93826 11.5523 2.93826 11V7C2.93826 6.44772 3.38598 6 3.93826 6H6.90724ZM11.9383 20H13.9383V12H11.9383V20ZM9.93826 12V20H6.93826V12H9.93826ZM10.9383 10H14.9383H19.9383H20.9383V8H16.6287H12.9632H9.29774H4.93826V10H5.93826H10.9383ZM15.9383 12V20H18.9383V12H15.9383ZM9.31202 6H11.9632V5.00215C11.9632 4.62798 11.8335 4.34184 11.6916 4.17514C11.5532 4.01245 11.4466 4 11.4104 4H9.31608C9.27658 4 9.17162 4.01323 9.03569 4.17253C8.89555 4.33678 8.76491 4.6216 8.76324 4.9981C8.76159 5.37065 8.88919 5.65527 9.02927 5.82158C9.16164 5.97874 9.26748 5.99858 9.31202 6ZM13.9632 6H16.6144C16.659 5.99858 16.7648 5.97874 16.8972 5.82158C17.0373 5.65527 17.1649 5.37065 17.1632 4.9981C17.1615 4.6216 17.0309 4.33678 16.8908 4.17253C16.7548 4.01323 16.6499 4 16.6104 4H14.516C14.4799 4 14.3732 4.01245 14.2348 4.17514C14.093 4.34184 13.9632 4.62798 13.9632 5.00215V6Z" fill="#141818"/>
</svg>
