<svg width="25" height="24" viewBox="0 0 25 24" fill="none" xmlns="http://www.w3.org/2000/svg">
<g clip-path="url(#clip0_6186_5533)">
<path fill-rule="evenodd" clip-rule="evenodd" d="M10.3362 3.55705C10.5431 2.64633 11.3527 2 12.2866 2H13.5899C14.5239 2 15.3334 2.64633 15.5403 3.55705L15.7392 4.43292C15.74 4.43448 15.7422 4.43799 15.7471 4.44335C15.7581 4.45524 15.779 4.47164 15.8106 4.48371C15.9493 4.53681 16.0862 4.59359 16.2212 4.65398C16.2521 4.66781 16.2786 4.67106 16.2948 4.67041C16.3021 4.67011 16.3062 4.66916 16.3078 4.66863L17.069 4.18935C17.8595 3.69163 18.8892 3.80738 19.5495 4.46817L20.0093 4.92838L20.4701 5.38879C21.1309 6.04903 21.2466 7.07875 20.7489 7.86923L20.2699 8.62995C20.2694 8.63163 20.2685 8.63565 20.2682 8.6429C20.2675 8.65908 20.2708 8.6856 20.2847 8.71655C20.3448 8.85075 20.4015 8.98699 20.4544 9.12516C20.467 9.15791 20.484 9.17974 20.4964 9.19118C20.5021 9.19641 20.5058 9.19869 20.5074 9.19953L21.3812 9.39799C22.2919 9.60483 22.9383 10.4144 22.9383 11.3483V12.6517C22.9383 13.5856 22.2919 14.3952 21.3812 14.602L20.5056 14.8009C20.5041 14.8017 20.5005 14.8039 20.4952 14.8088C20.4832 14.8199 20.4667 14.8409 20.4546 14.8727C20.4014 15.0114 20.3447 15.1482 20.2843 15.2831C20.2705 15.314 20.2672 15.3405 20.2679 15.3566C20.2682 15.3639 20.2691 15.3679 20.2696 15.3696L20.7489 16.1308C21.2466 16.9212 21.1309 17.951 20.4701 18.6112L20.0099 19.071L19.5495 19.5318C18.8892 20.1926 17.8595 20.3084 17.069 19.8107L16.3083 19.3317C16.3066 19.3311 16.3026 19.3302 16.2954 19.3299C16.2792 19.3293 16.2527 19.3325 16.2217 19.3464C16.0875 19.4066 15.9513 19.4632 15.8131 19.5162C15.7804 19.5287 15.7585 19.5457 15.7471 19.5581C15.7419 19.5638 15.7396 19.5675 15.7387 19.5691L15.5403 20.443C15.3334 21.3537 14.5239 22 13.5899 22H12.2866C11.3527 22 10.5431 21.3537 10.3362 20.443L10.1374 19.5674C10.1366 19.5658 10.1344 19.5623 10.1294 19.5569C10.1184 19.5449 10.0973 19.5284 10.0656 19.5163C9.92688 19.4632 9.79004 19.4064 9.65513 19.346C9.62425 19.3322 9.59779 19.329 9.58163 19.3296C9.57437 19.3299 9.57035 19.3309 9.56868 19.3314L8.80749 19.8107C8.01702 20.3084 6.9873 20.1926 6.32705 19.5318L5.40643 18.6112C4.74564 17.951 4.62989 16.9212 5.12761 16.1308L5.60659 15.3701C5.60711 15.3684 5.60804 15.3644 5.60833 15.3572C5.60897 15.341 5.60571 15.3146 5.59185 15.2837C5.5317 15.1496 5.47505 15.0134 5.4221 14.8752C5.40948 14.8423 5.39235 14.8203 5.37988 14.8088C5.37419 14.8035 5.37046 14.8012 5.36883 14.8004L4.49531 14.602C3.58459 14.3952 2.93826 13.5856 2.93826 12.6517V11.3483C2.93826 10.4144 3.58459 9.60483 4.49531 9.39799L5.37118 9.19906C5.37274 9.19825 5.37626 9.19608 5.38161 9.19114C5.3935 9.1802 5.4099 9.15923 5.42198 9.12769C5.47507 8.98899 5.53186 8.85209 5.59224 8.71708C5.60607 8.68617 5.60933 8.65966 5.60867 8.64345C5.60837 8.63614 5.60742 8.6321 5.60689 8.63042L5.12761 7.86923C4.62989 7.07876 4.74564 6.04903 5.40643 5.38879L6.32705 4.46817C6.98729 3.80738 8.01702 3.69163 8.80749 4.18934L9.56821 4.66833C9.56988 4.66885 9.57388 4.66978 9.58108 4.67006C9.59722 4.67071 9.62369 4.66745 9.6546 4.65359C9.7887 4.59344 9.92489 4.53679 10.0631 4.48384C10.096 4.47122 10.118 4.45409 10.1295 4.44162C10.1347 4.43593 10.137 4.4322 10.1379 4.43056L10.3362 3.55705ZM20.5083 9.19993C20.5089 9.20021 20.5084 9.19997 20.5083 9.19993ZM13.5899 4L12.2866 4L12.0879 4.87471C11.923 5.60088 11.3857 6.11877 10.7788 6.35138C10.6756 6.39092 10.5737 6.43331 10.4731 6.47845C9.87828 6.74522 9.13246 6.75739 8.50362 6.36144L7.74185 5.8818L6.82006 6.80358L7.29999 7.5658C7.69555 8.19403 7.68387 8.93914 7.41794 9.53369C7.3725 9.63528 7.32976 9.73831 7.2898 9.8427C7.0571 10.4506 6.53861 10.9849 5.81532 11.1491L4.93826 11.3483L4.93826 12.6517L5.81298 12.8503C6.53914 13.0153 7.05704 13.5525 7.28965 14.1595C7.32918 14.2626 7.37157 14.3646 7.41671 14.4652C7.68348 15.06 7.69565 15.8058 7.29971 16.4346L6.82006 17.1964L7.74185 18.1182L8.50407 17.6383C9.13233 17.2427 9.87749 17.2544 10.4721 17.5205C10.5735 17.5659 10.6764 17.6086 10.7807 17.6485C11.3884 17.8812 11.9231 18.3996 12.0875 19.1232L12.2866 20H13.5899L13.7887 19.125C13.9535 18.3992 14.4904 17.8812 15.0974 17.6486C15.2007 17.609 15.3028 17.5666 15.4036 17.5214C15.9983 17.2548 16.7441 17.2426 17.3729 17.6386L18.1347 18.1182L19.0565 17.1964L18.5765 16.4342C18.181 15.8059 18.1927 15.0608 18.4587 14.4662C18.5042 14.3647 18.5468 14.2618 18.5868 14.1576C18.8194 13.5499 19.3378 13.0152 20.0615 12.8508L20.9383 12.6517V11.3483L20.0633 11.1496C19.3375 10.9848 18.8195 10.4479 18.5868 9.84082C18.5473 9.73752 18.5048 9.63544 18.4597 9.53468C18.193 8.93993 18.1809 8.19417 18.5768 7.56536L19.0565 6.80358L18.1347 5.8818L17.3725 6.36173C16.7442 6.75729 15.9991 6.74561 15.4046 6.47968C15.303 6.43423 15.2 6.3915 15.0956 6.35154C14.4877 6.11884 13.9534 5.60035 13.7891 4.87706L13.5899 4ZM12.9383 10C11.8338 10 10.9383 10.8956 10.9383 12C10.9383 13.1044 11.8338 14 12.9383 14C14.0427 14 14.9383 13.1044 14.9383 12C14.9383 10.8955 14.0427 10 12.9383 10ZM8.93826 12C8.93826 9.79098 10.7292 8 12.9383 8C15.1473 8 16.9383 9.79099 16.9383 12C16.9383 14.209 15.1473 16 12.9383 16C10.7292 16 8.93826 14.209 8.93826 12Z" fill="#171717"/>
</g>
<defs>
<clipPath id="clip0_6186_5533">
<rect width="24" height="24" fill="white" transform="translate(0.938263)"/>
</clipPath>
</defs>
</svg>
