<svg width="25" height="24" viewBox="0 0 25 24" fill="none" xmlns="http://www.w3.org/2000/svg">
<path fill-rule="evenodd" clip-rule="evenodd" d="M12.75 2C7.22715 2 2.75 6.47715 2.75 12C2.75 17.5228 7.22715 22 12.75 22C18.2728 22 22.75 17.5228 22.75 12C22.75 6.47715 18.2728 2 12.75 2ZM18.4571 9.70711C18.8476 9.31659 18.8476 8.68342 18.4571 8.2929C18.0666 7.90237 17.4334 7.90237 17.0429 8.29289L10.75 14.5857L8.45711 12.2929C8.06658 11.9023 7.43342 11.9023 7.04289 12.2929C6.65237 12.6834 6.65237 13.3165 7.04289 13.7071L10.0429 16.7071L10.75 17.4142L11.4571 16.7071L18.4571 9.70711Z" fill="#141818"/>
</svg>
