<svg width="50" height="50" viewBox="0 0 50 50" fill="none" xmlns="http://www.w3.org/2000/svg">
<path d="M47.9166 16.6667C47.9166 18.9583 46.0416 20.8333 43.7499 20.8333C43.3749 20.8333 43.0208 20.7917 42.6874 20.6875L35.2708 28.0833C35.3749 28.4167 35.4166 28.7917 35.4166 29.1667C35.4166 31.4583 33.5416 33.3333 31.2499 33.3333C28.9583 33.3333 27.0833 31.4583 27.0833 29.1667C27.0833 28.7917 27.1249 28.4167 27.2291 28.0833L21.9166 22.7708C21.5833 22.875 21.2083 22.9167 20.8333 22.9167C20.4583 22.9167 20.0833 22.875 19.7499 22.7708L10.2708 32.2708C10.3749 32.6042 10.4166 32.9583 10.4166 33.3333C10.4166 35.625 8.54159 37.5 6.24992 37.5C3.95825 37.5 2.08325 35.625 2.08325 33.3333C2.08325 31.0417 3.95825 29.1667 6.24992 29.1667C6.62492 29.1667 6.97909 29.2083 7.31242 29.3125L16.8124 19.8333C16.7083 19.5 16.6666 19.125 16.6666 18.75C16.6666 16.4583 18.5416 14.5833 20.8333 14.5833C23.1249 14.5833 24.9999 16.4583 24.9999 18.75C24.9999 19.125 24.9583 19.5 24.8541 19.8333L30.1666 25.1458C30.4999 25.0417 30.8749 25 31.2499 25C31.6249 25 31.9999 25.0417 32.3333 25.1458L39.7291 17.7292C39.6249 17.3958 39.5833 17.0417 39.5833 16.6667C39.5833 14.375 41.4583 12.5 43.7499 12.5C46.0416 12.5 47.9166 14.375 47.9166 16.6667Z" fill="#141818"/>
</svg>
