<svg width="50" height="50" viewBox="0 0 50 50" fill="none" xmlns="http://www.w3.org/2000/svg">
<path d="M20.8367 7.2924H29.17C30.3159 7.2924 31.2534 6.3549 31.2534 5.20907C31.2534 4.06323 30.3159 3.12573 29.17 3.12573H20.8367C19.6909 3.12573 18.7534 4.06323 18.7534 5.20907C18.7534 6.3549 19.6909 7.2924 20.8367 7.2924Z" fill="#141818"/>
<path d="M39.6492 16.4382L41.2117 14.8757C42.0034 14.0841 42.0242 12.7716 41.2117 11.9591L41.1909 11.9382C40.3784 11.1257 39.0867 11.1466 38.2742 11.9382L36.7117 13.5007C33.4825 10.9174 29.42 9.37573 25.0034 9.37573C15.0034 9.37573 6.50338 17.6257 6.25338 27.6257C5.98255 38.2091 14.4617 46.8757 25.0034 46.8757C35.3784 46.8757 43.7534 38.4799 43.7534 28.1257C43.7534 23.7091 42.2117 19.6466 39.6492 16.4382ZM27.0867 28.1257C27.0867 29.2716 26.1492 30.2091 25.0034 30.2091C23.8575 30.2091 22.92 29.2716 22.92 28.1257V19.7924C22.92 18.6466 23.8575 17.7091 25.0034 17.7091C26.1492 17.7091 27.0867 18.6466 27.0867 19.7924V28.1257Z" fill="#141818"/>
</svg>
