<svg width="24" height="24" viewBox="0 0 24 24" fill="none" xmlns="http://www.w3.org/2000/svg">
<path fill-rule="evenodd" clip-rule="evenodd" d="M19 4.0012C19 2.67428 17.7315 1.71522 16.4548 2.07695L2.7274 5.96638L2 6.17247V6.9285V19.9285C2 21.0331 2.89543 21.9285 4 21.9285H20C21.1046 21.9285 22 21.0331 22 19.9285V17.4285V15.4285V12.4285V10.4285V8.9285V7.9285C22 6.82393 21.1046 5.9285 20 5.9285H19V4.0012ZM20 10.4285V8.9285V7.9285H18H4V19.9285H20V17.4285H15C13.8954 17.4285 13 16.533 13 15.4285V12.4285C13 11.3239 13.8954 10.4285 15 10.4285H20ZM20 15.4285V12.4285H15V15.4285H20ZM17 4.0012V5.9285H10.1978L17 4.0012Z" fill="#141818"/>
</svg>
