<svg width="25" height="24" viewBox="0 0 25 24" fill="none" xmlns="http://www.w3.org/2000/svg">
<path fill-rule="evenodd" clip-rule="evenodd" d="M20.2071 10.7071C19.8166 11.0976 19.1834 11.0976 18.7929 10.7071L13.5001 5.41423L13.5001 21C13.5001 21.5523 13.0523 22 12.5001 22C11.9478 22 11.5001 21.5523 11.5001 21L11.5001 5.4142L6.2071 10.7071C5.81658 11.0976 5.18341 11.0976 4.79289 10.7071C4.40237 10.3166 4.40237 9.68341 4.7929 9.29289L11.793 2.29289C11.9805 2.10535 12.2348 2 12.5001 2C12.7653 2 13.0196 2.10536 13.2072 2.2929L20.2071 9.2929C20.5976 9.68342 20.5976 10.3166 20.2071 10.7071Z" fill="#141818"/>
</svg>
